<svg xmlns="http://www.w3.org/2000/svg" width="512" height="512" viewBox="0 0 512 512" version="1.1"><path d="" stroke="none" fill="#080404" fill-rule="evenodd"/><path d="M 291.616 2.087 C 288.082 4.868, 278.846 20.708, 272.225 35.346 C 246.014 93.295, 247.270 143.868, 275.858 181.610 C 279.145 185.949, 283.897 191.506, 286.417 193.958 L 291 198.416 290.957 227.958 L 290.913 257.500 286.108 252.137 C 281.588 247.092, 281.183 246.171, 279.285 236.637 C 268.599 182.950, 224.670 148.716, 154.699 139.546 C 148.208 138.696, 138.533 138.002, 133.199 138.004 C 121.981 138.008, 118.098 139.630, 115.311 145.474 C 113.867 148.502, 113.805 149.819, 114.843 155.449 C 117.708 170.999, 125.803 190.364, 135.617 205.148 C 141.996 214.757, 157.550 230.401, 167 236.713 C 182.079 246.786, 197.814 253.201, 217.394 257.260 C 225.709 258.983, 231.382 259.376, 249.405 259.473 L 271.310 259.592 275.217 263.995 C 280.268 269.686, 285.759 279.551, 288.147 287.224 C 289.186 290.564, 289.913 293.420, 289.762 293.571 C 289.611 293.722, 284.765 294.354, 278.994 294.976 C 256.666 297.380, 237.174 302.985, 216.235 313.022 L 203.970 318.901 199.735 317.379 C 187.671 313.046, 169.354 311.809, 155.838 314.415 C 141.135 317.250, 137.399 318.962, 99.910 340.031 C 77.083 352.860, 74.420 354.117, 72.560 352.938 C 66.954 349.384, 64.127 348.501, 58.406 348.517 C 52.716 348.532, 51.524 348.986, 40.406 355.373 C 33.858 359.134, 27.491 363.139, 26.259 364.272 C 20.403 369.655, 18.065 382.346, 21.649 389.300 C 25.616 396.996, 86.423 501.810, 88.567 504.648 C 92.351 509.655, 98.899 512.305, 106.300 511.823 C 111.651 511.475, 113.937 510.604, 122.990 505.468 C 135.220 498.530, 139.385 495.127, 142.059 489.885 C 144.176 485.735, 144.674 476.902, 143.034 472.588 C 142.138 470.234, 142.658 469.536, 150.091 463.102 C 155.801 458.160, 159.183 455.976, 161.816 455.531 C 164.834 455.021, 171.612 456.878, 198.509 465.585 C 235.179 477.456, 240.599 478.962, 246.735 478.984 C 253.365 479.009, 378.033 466.052, 382.400 464.885 C 384.545 464.311, 388.595 462.811, 391.400 461.550 C 398.886 458.185, 480.802 401.653, 485.557 396.570 C 490.160 391.649, 492 386.632, 492 379 C 492 370.804, 490.107 366.082, 484.521 360.336 C 480.571 356.274, 478.265 354.816, 473.713 353.504 C 466.656 351.471, 461.742 352.116, 453.779 356.122 C 450.632 357.705, 447.592 359, 447.024 359 C 446.457 359, 438.006 352.619, 428.246 344.819 C 418.486 337.019, 406.153 327.787, 400.839 324.303 C 376.753 308.508, 348.225 298.411, 318.051 295.003 C 312.854 294.416, 308.420 293.754, 308.198 293.532 C 307.430 292.763, 312.037 280.476, 315.262 274.694 C 317.043 271.500, 320.270 266.775, 322.433 264.194 L 326.367 259.500 347.433 259.471 C 371.427 259.438, 380.753 258.158, 398.500 252.462 C 417.590 246.336, 423.813 241.544, 420.805 235.286 C 420.087 233.794, 418.280 231.889, 416.788 231.053 C 414.458 229.747, 413.614 229.723, 410.788 230.887 C 388.221 240.179, 377.380 242.785, 358 243.576 L 344.500 244.127 348.500 240.444 C 355.742 233.777, 387.886 210.168, 406.863 197.579 C 426.083 184.830, 464.055 161.722, 464.710 162.377 C 465.201 162.868, 459.656 176.765, 456.357 183.309 C 452.321 191.319, 445.402 201.651, 440.615 206.819 C 433.275 214.743, 432.308 218.399, 436.455 222.545 C 440.734 226.825, 444.534 225.952, 450.797 219.250 C 462.153 207.099, 473.249 187.325, 479.273 168.500 C 484.092 153.442, 484.562 149.986, 482.407 145.446 C 479.609 139.549, 476.047 138.008, 465.211 138.004 C 439.147 137.993, 406.227 145.259, 383.571 156.023 C 365.530 164.594, 348.336 178.123, 337.963 191.907 C 328.295 204.754, 320.596 222.863, 317.973 238.921 C 316.868 245.691, 316.291 246.896, 311.381 252.684 L 306 259.027 306 228.891 L 306 198.755 311.979 192.364 C 344.717 157.367, 351.964 113.003, 333.838 58.562 C 327.099 38.322, 313.713 11.129, 306.905 3.846 C 303.760 0.482, 302.743 -0, 298.790 -0 C 295.721 -0, 293.418 0.670, 291.616 2.087 M 286.221 42.756 C 280.685 54.673, 274.690 72.754, 271.883 86 C 268.623 101.380, 268.620 124.890, 271.876 137.500 C 274.665 148.300, 280.293 160.748, 286.183 169.146 L 290.500 175.301 290.763 139.577 C 290.907 119.929, 290.907 88.034, 290.763 68.699 L 290.500 33.545 286.221 42.756 M 306.090 104.500 L 306.010 175.500 308.443 172.500 C 315.571 163.711, 322.810 147.789, 325.507 134.966 C 331.152 108.132, 325.348 73.033, 310.051 41.500 L 306.170 33.500 306.090 104.500 M 440.500 155.709 C 432.674 156.778, 413.719 161.512, 404.617 164.672 C 370.952 176.360, 348.772 196.115, 338.412 223.637 L 336.016 230.002 345.815 222.196 C 367.328 205.057, 403.563 180.067, 429.500 164.482 C 440.794 157.696, 445.572 154.610, 443.950 155.150 C 443.702 155.232, 442.150 155.484, 440.500 155.709 M 170.943 166.056 C 199.645 183.728, 228.683 204.017, 258.644 227.333 C 261.673 229.690, 261.611 228.555, 258.290 220.816 C 244.328 188.281, 214.581 167.445, 168.640 158.022 C 163.217 156.910, 157.842 156, 156.695 156 C 155.526 156, 161.786 160.419, 170.943 166.056 M 133.492 164.097 C 135.181 169.706, 140.366 181.903, 143.227 187 C 163.117 222.428, 195.712 241.535, 239.909 243.674 C 248.824 244.105, 253.109 243.985, 252.695 243.315 C 251.871 241.982, 229.234 224.410, 216 214.830 C 201.463 204.307, 170.273 183.927, 153.500 173.992 C 145.800 169.431, 137.985 164.798, 136.134 163.697 L 132.768 161.693 133.492 164.097 M 273.189 311.514 C 260.680 313.414, 247.123 317.111, 234.336 322.111 L 223.764 326.244 234.632 331.984 C 240.609 335.141, 249.100 339.825, 253.500 342.393 C 257.900 344.961, 263.750 347.714, 266.500 348.512 C 269.250 349.309, 286.575 351.776, 305 353.994 C 335.937 357.717, 338.972 358.256, 344.672 361.037 C 355.863 366.497, 363.581 377.353, 365.535 390.384 L 366.255 395.189 370.878 394.519 C 380.002 393.198, 393.691 387.748, 411.443 378.369 C 421.375 373.123, 429.869 368.477, 430.319 368.046 C 431.322 367.086, 404.882 345.889, 392.500 337.727 C 374.748 326.026, 353.420 317.372, 331.379 312.929 C 317.379 310.106, 287.280 309.375, 273.189 311.514 M 153.373 330.924 C 149.453 331.982, 143.378 334.295, 139.873 336.064 C 134.614 338.718, 84.214 366.702, 83.187 367.538 C 83.014 367.679, 85.152 371.801, 87.937 376.698 C 93.819 387.045, 94.348 390.795, 90.365 393.927 C 84.248 398.739, 81.109 396.426, 71.896 380.318 C 63.970 366.461, 62.021 364, 58.973 364 C 57.858 364, 52.275 366.724, 46.568 370.054 C 38.836 374.564, 36.030 376.746, 35.562 378.610 C 35.050 380.649, 40.877 391.423, 67.033 436.806 C 84.688 467.438, 100.272 493.529, 101.664 494.786 C 103.302 496.265, 104.877 496.857, 106.124 496.461 C 110.425 495.096, 126.347 485.346, 127.764 483.209 C 129.716 480.267, 130.391 481.681, 110.912 447.919 C 102.161 432.750, 95 419.342, 95 418.124 C 95 414.663, 99.322 411, 103.404 411 C 107.809 411, 108.565 411.996, 121.992 435.500 C 127.648 445.400, 132.702 454.043, 133.224 454.706 C 133.918 455.589, 136.188 454.193, 141.682 449.505 C 146.295 445.569, 151.050 442.480, 154.009 441.497 C 163.885 438.217, 167.523 438.907, 206.361 451.434 C 231.843 459.652, 243.623 463, 247.060 463 C 252.643 463, 366.673 451.497, 375.163 450.077 C 378.278 449.557, 382.663 448.243, 384.907 447.159 C 387.151 446.075, 408.182 431.983, 431.642 415.844 C 467.060 391.479, 474.536 385.931, 475.705 383.146 C 478.283 377.006, 474.702 369.597, 468.603 368.453 C 465.691 367.907, 461.382 369.889, 432.896 384.875 C 415.078 394.248, 397.391 403.084, 393.591 404.510 C 380.042 409.594, 369.152 411.263, 338.500 412.949 C 328.050 413.524, 308.823 414.729, 295.773 415.627 C 274.040 417.123, 271.841 417.126, 269.610 415.664 C 264.637 412.405, 265.669 404.147, 271.302 402.120 C 272.511 401.685, 290.712 400.259, 311.750 398.950 L 350 396.571 350 393.465 C 350 388.533, 345.057 379.898, 340.379 376.657 C 336.438 373.927, 334.730 373.612, 301.379 369.456 C 259.816 364.277, 258.920 364.023, 237.196 351.278 C 224.650 343.918, 213.008 338.561, 199.098 333.749 C 188.202 329.980, 186.683 329.714, 174 329.368 C 162.982 329.068, 159.189 329.354, 153.373 330.924" stroke="none" fill="#040404" fill-rule="evenodd"/></svg>