<svg xmlns="http://www.w3.org/2000/svg" width="512" height="512" viewBox="0 0 512 512" version="1.1"><path d="" stroke="none" fill="#080404" fill-rule="evenodd"/><path d="M 114.500 27.700 C 97.140 29.277, 69.566 35.769, 51.360 42.566 C 33.228 49.335, 29.226 52.175, 26.904 59.925 C 25.025 66.196, 26.937 70.301, 37.649 83 C 49.697 97.284, 65.370 118.209, 71.818 128.623 C 74.501 132.955, 80.218 143.460, 84.523 151.968 C 107.126 196.631, 132.629 221.396, 161.477 226.693 C 171.549 228.542, 182.180 227.685, 192.033 224.230 C 198.805 221.855, 198.802 221.477, 191.902 207.491 C 178.757 180.845, 161.662 161.338, 136.853 144.675 C 131.796 141.279, 126.803 137.336, 125.756 135.913 C 118.358 125.856, 127.299 111.006, 140.018 112.228 C 145.384 112.743, 155 118.181, 155 120.700 C 155 124.424, 159.178 128.637, 169.918 135.741 C 184.347 145.286, 200.555 161.028, 208.279 173 C 211.295 177.675, 216.123 186.217, 219.007 191.981 C 221.891 197.746, 224.848 202.921, 225.579 203.481 C 228.117 205.427, 235.720 227.734, 239.559 244.500 C 243.721 262.672, 245.203 277.271, 245.700 305 C 246.079 326.114, 245.821 336.021, 244.589 347.663 C 242.204 370.204, 242.771 368.701, 236.134 370.057 C 219.693 373.415, 200.486 381.309, 186.258 390.555 C 162.138 406.230, 143.956 426.836, 131.157 453 C 127.158 461.174, 126.509 463.362, 126.505 468.677 C 126.500 475.352, 128.052 478.456, 133.385 482.438 C 136.141 484.496, 136.404 484.500, 266.500 484.500 L 396.853 484.500 399.677 482.408 C 404.614 478.750, 407.001 474.244, 406.991 468.602 C 406.983 464.482, 405.935 461.334, 401.542 452.245 C 393.628 435.868, 385.306 424.221, 372.042 410.957 C 346.766 385.679, 317.842 372.023, 279.969 367.486 L 275.438 366.943 276.751 355.722 C 277.473 349.550, 278.388 333.918, 278.782 320.985 L 279.500 297.470 284.752 286.985 C 292.681 271.153, 303.920 256.247, 322.344 237.125 C 330.724 228.427, 334.005 227.341, 341.181 230.892 C 346.244 233.397, 348.918 236.723, 349.689 241.471 C 350.908 248.982, 349.539 251.518, 337.408 264.224 C 331.106 270.825, 325.501 277.064, 324.953 278.087 C 324.118 279.648, 324.604 280.356, 327.960 282.475 C 330.162 283.865, 335.313 286.126, 339.408 287.501 C 348.313 290.490, 362.588 290.893, 372.966 288.446 C 381.157 286.516, 396.369 279.340, 404.352 273.641 C 414.202 266.609, 424.988 254.572, 430.968 243.939 C 438.372 230.774, 441.312 226.699, 449.861 217.750 C 457.637 209.611, 467.474 202.392, 474.754 199.481 C 479.829 197.451, 483.512 193.361, 485.132 187.955 C 486.961 181.848, 484.991 176.859, 477.789 169.359 C 463.439 154.415, 439.486 142.329, 414.339 137.346 C 401.854 134.872, 376.509 134.865, 365 137.333 C 334.532 143.864, 314.223 157.353, 304.521 177.500 C 299.984 186.921, 298.093 194.555, 297.337 206.500 L 296.703 216.500 290.447 223.168 C 287.006 226.835, 281.812 232.803, 278.906 236.429 C 276 240.056, 273.337 242.680, 272.987 242.261 C 272.637 241.843, 271.547 237.900, 270.565 233.500 C 266.707 216.215, 257.988 192.319, 250.293 177.938 L 246.782 171.375 249.777 165.438 C 254.081 156.903, 258.656 143.408, 260.449 133.953 C 265.646 106.557, 257.341 81.559, 237.303 64.288 C 208.916 39.821, 170.775 26.591, 130.289 27.168 C 123.805 27.261, 116.700 27.500, 114.500 27.700" stroke="none" fill="#040404" fill-rule="evenodd"/></svg>