<svg xmlns="http://www.w3.org/2000/svg" width="512" height="512" viewBox="0 0 512 512" version="1.1"><path d="" stroke="none" fill="#080404" fill-rule="evenodd"/><path d="M 226.500 25.476 C 173.560 32.697, 129.352 54.555, 92 91.975 C 54.287 129.757, 31.975 175.334, 25.426 227.962 C 22.663 250.168, 23.928 281.217, 28.504 303.500 C 44.642 382.085, 102.455 448.213, 178.307 474.848 C 205.186 484.286, 227.127 488, 256.012 488 C 285.297 488, 312.691 483.151, 338.082 473.473 C 410.825 445.746, 465.590 382.802, 482.476 307.514 C 486.342 290.277, 488 274.813, 488 256 C 488 203.542, 472.617 157.725, 440.660 115.002 C 431.047 102.151, 408.929 80.229, 395.500 70.243 C 364.411 47.126, 330.030 32.503, 292.383 26.385 C 278.814 24.180, 239.934 23.644, 226.500 25.476 M 241 41.050 C 189.292 44.436, 141.426 66.381, 103.904 103.904 C 65.552 142.256, 44.499 188.941, 40.985 243.428 C 40.456 251.638, 40.197 258.531, 40.412 258.745 C 40.626 258.959, 45.786 257.556, 51.879 255.626 C 75.837 248.040, 95.627 245.047, 122.026 245.020 C 149.847 244.990, 171.228 248.334, 196 256.589 C 208.618 260.793, 234.106 272.473, 243.750 278.470 L 248 281.113 248 253.205 L 248 225.296 240.250 224.689 C 220.472 223.140, 197.944 214.181, 185.768 203.024 C 170.594 189.120, 161.619 168.635, 158.934 141.779 C 157.645 128.889, 158.125 125.171, 161.484 122.015 C 163.858 119.785, 164.352 119.729, 176.719 120.297 C 206.994 121.687, 232.437 133.436, 246.140 152.352 C 247.793 154.634, 249.398 156.500, 249.708 156.500 C 250.018 156.500, 250.869 154.165, 251.600 151.312 C 261.608 112.205, 290.763 90.242, 335.281 88.275 C 347.497 87.735, 348.167 87.808, 350.420 89.925 C 353.653 92.962, 354.085 96.145, 352.976 108.781 C 351.615 124.287, 348.017 137.589, 341.825 150 C 334.827 164.028, 324.757 174.362, 311.454 181.167 C 297.888 188.107, 280.080 193, 268.390 193 L 264 193 264 237.057 L 264 281.113 268.250 278.480 C 278.352 272.221, 303.005 260.895, 315.719 256.673 C 340.614 248.405, 362.073 245.021, 389.699 245.008 C 415.275 244.996, 436.800 248.241, 460.121 255.626 C 466.214 257.556, 471.374 258.960, 471.587 258.746 C 472.372 257.961, 470.095 229.190, 468.537 220.212 C 460.723 175.177, 440.550 136.357, 408.096 103.904 C 363.309 59.116, 304.265 36.907, 241 41.050 M 321.113 106.545 C 296.737 111.833, 282.346 122.028, 273.650 140.171 C 268.730 150.435, 266.173 159.553, 265.302 169.935 L 264.732 176.732 270.116 176.242 C 279.044 175.429, 294.040 171.245, 302 167.348 C 312.242 162.333, 322.333 152.242, 327.348 142 C 331.223 134.085, 335.428 119.053, 336.229 110.250 L 336.706 105 332.103 105.079 C 329.571 105.123, 324.626 105.783, 321.113 106.545 M 175.650 141.111 C 179.784 177.658, 195.711 197.594, 227 205.386 C 232.225 206.687, 238.922 207.972, 241.881 208.241 L 247.262 208.732 246.644 202.074 C 244.965 184.015, 237.656 166.619, 227.465 156.428 C 217.224 146.187, 199.607 138.773, 182.008 137.297 L 175.153 136.723 175.650 141.111 M 101.717 262.117 C 88.725 263.369, 69.288 267.549, 55.590 272.039 C 48.941 274.218, 43.042 276.338, 42.482 276.750 C 41.813 277.243, 41.761 279.999, 42.330 284.783 L 43.197 292.066 50.849 291.283 C 55.057 290.852, 68.400 290.532, 80.500 290.571 C 98.687 290.629, 104.753 291.036, 115.500 292.917 C 180.047 304.216, 235.175 340.117, 271.487 394.500 C 283.646 412.711, 295.744 440.029, 302.643 464.859 C 302.921 465.860, 304.008 466.037, 306.761 465.529 C 311.246 464.702, 333.928 457.368, 335.870 456.117 C 337.710 454.931, 335.958 442.218, 331.512 424.500 C 315.900 362.278, 274.568 311.400, 216.500 282.924 C 181.059 265.545, 141.174 258.314, 101.717 262.117 M 372.765 262.107 C 339.885 264.636, 307.348 274.908, 279.409 291.580 L 269.922 297.241 274.211 300.807 C 279.673 305.348, 293.340 319.012, 298.865 325.455 C 302.843 330.094, 303.253 330.321, 305.307 329.016 C 335.913 309.555, 363.083 298.951, 397.999 292.838 C 408.045 291.080, 414.623 290.636, 431.500 290.575 C 443.050 290.534, 456.169 290.844, 460.653 291.265 L 468.807 292.031 469.672 284.765 C 470.333 279.215, 470.238 277.311, 469.268 276.700 C 468.570 276.260, 462.688 274.156, 456.197 272.024 C 440.961 267.021, 422.085 263.383, 404.500 262.061 C 389.157 260.907, 388.357 260.908, 372.765 262.107 M 53.711 308.003 C 50.528 308.411, 47.692 308.975, 47.410 309.257 C 46.627 310.040, 54.863 334.653, 56.268 335.727 C 56.946 336.246, 61.644 337.200, 66.710 337.848 C 93.687 341.298, 127.536 353.516, 153 368.994 C 188.845 390.783, 222.275 427.023, 239.652 462.930 L 243.457 470.793 249.120 471.434 C 254.605 472.055, 284.931 470.402, 285.904 469.429 C 287.514 467.819, 275.475 435.488, 268.242 422 C 254.357 396.107, 233.970 371.406, 212 353.856 C 182.050 329.931, 143.248 313.491, 105.158 308.588 C 92.372 306.943, 64.476 306.625, 53.711 308.003 M 412.500 307.608 C 382.566 311.886, 360.496 318.274, 339.500 328.737 C 328.306 334.315, 314 342.857, 314 343.963 C 314 344.419, 316.763 349.188, 320.141 354.562 C 323.518 359.936, 328.492 368.960, 331.194 374.617 L 336.107 384.901 341.804 380.581 C 370.150 359.084, 409.566 342.649, 444 337.969 C 457.019 336.200, 456.285 336.872, 460.989 322.413 C 463.900 313.465, 464.806 309.406, 464.058 308.658 C 463.004 307.604, 418.826 306.704, 412.500 307.608 M 67.042 359.802 C 93.537 407.358, 137.450 443.784, 188.484 460.539 C 200.829 464.592, 222.616 469.718, 223.546 468.788 C 224.363 467.971, 211.963 448.037, 204.359 437.942 C 174.587 398.420, 132.404 370.463, 84.500 358.504 C 77.350 356.719, 69.783 354.999, 67.684 354.682 L 63.868 354.104 67.042 359.802 M 435.500 356.468 C 404.821 362.997, 375.821 376.074, 351.132 394.511 L 342.271 401.128 345.079 410.086 C 346.624 415.013, 349.150 425.559, 350.692 433.522 C 352.234 441.485, 353.746 448, 354.051 448 C 354.357 448, 359.185 445.293, 364.780 441.985 C 397.570 422.599, 426.221 393.217, 444.970 359.750 C 446.741 356.587, 447.810 354.029, 447.345 354.064 C 446.880 354.098, 441.550 355.181, 435.500 356.468" stroke="none" fill="#040404" fill-rule="evenodd"/></svg>