<svg xmlns="http://www.w3.org/2000/svg" width="512" height="512" viewBox="0 0 512 512" version="1.1"><path d="" stroke="none" fill="#080404" fill-rule="evenodd"/><path d="M 124.500 85.344 C 110.527 91.890, 105.183 108.379, 112.612 122.028 C 114.954 126.331, 120.993 132.164, 124.220 133.240 C 124.723 133.408, 122.292 145.865, 118.817 160.923 L 112.500 188.302 103.346 190.145 C 78.956 195.057, 51.457 209.201, 44.561 220.381 C 38.874 229.601, 40.018 243.395, 47.144 251.511 L 50.042 254.812 44.760 261.833 C 18.403 296.869, 17.156 346.342, 41.698 383.308 C 78.392 438.576, 157.410 446.429, 204.366 399.473 C 211.386 392.453, 221.151 379.214, 224.076 372.750 L 225.321 370 258.583 370 L 291.845 370 293.060 373.750 C 301.626 400.191, 326.055 421.630, 354.208 427.416 C 392.820 435.351, 433.178 413.116, 446.510 376.561 C 448.774 370.355, 449.652 369, 451.412 369 C 455.008 369, 467.647 362.366, 472.403 357.982 C 478.190 352.649, 482.684 345.588, 485.281 337.748 C 487.155 332.092, 487.391 328.506, 487.769 299.890 C 488.252 263.263, 487.444 253.682, 483.081 244.359 C 477.772 233.015, 466.995 223.656, 454.909 219.895 C 449.303 218.150, 445.152 218, 402.411 218 L 356 218 356.006 202.750 C 356.009 194.363, 356.505 185.721, 357.109 183.546 C 357.906 180.675, 360.781 176.935, 367.603 169.893 C 375.280 161.970, 377 159.638, 377 157.153 C 377 152.558, 373.113 148.600, 368.599 148.600 C 365.316 148.600, 363.972 149.564, 355.543 157.957 C 350.375 163.104, 344.876 169.606, 343.323 172.407 C 340.525 177.456, 340.497 177.677, 340.176 197.750 L 339.853 218 327.161 218 L 314.470 218 306.191 176.250 C 301.637 153.287, 297.932 134.217, 297.956 133.871 C 297.980 133.526, 299.352 132.683, 301.005 131.998 C 308.284 128.983, 313.956 118.910, 313.956 109 C 313.956 98.533, 308.724 90.061, 299.403 85.437 C 295.650 83.574, 292.313 83.490, 212.500 83.251 L 129.500 83.001 124.500 85.344 M 129.913 101.282 C 126.014 104.275, 124.807 110.851, 127.460 114.640 C 130.546 119.046, 130.616 119.049, 213.170 118.768 L 291.840 118.500 294.318 116.171 C 295.682 114.890, 297.027 112.640, 297.308 111.171 C 297.956 107.779, 295.775 102.485, 293.150 101.080 C 290.088 99.441, 132.057 99.636, 129.913 101.282 M 141.535 137.250 C 140.924 139.152, 130 185.520, 130 186.214 C 130 186.548, 133.938 187.125, 138.750 187.497 C 184.409 191.025, 224.166 215.425, 246.935 253.891 L 252.327 263 264.485 263 L 276.642 263 281.321 254.664 C 283.894 250.080, 286 245.911, 286 245.400 C 286 244.890, 280.026 238.510, 272.724 231.224 L 259.449 217.976 254.512 222.988 C 250.394 227.168, 248.976 228, 245.962 228 C 241.256 228, 238 224.686, 238 219.897 C 238 216.731, 239.502 214.931, 254.952 199.577 C 271.379 183.253, 272.006 182.751, 275.199 183.390 C 279.319 184.214, 281.772 186.610, 282.568 190.588 C 283.106 193.280, 282.487 194.491, 277.666 200.174 L 272.148 206.678 283.977 218.477 L 295.806 230.275 297.330 227.330 C 298.897 224.299, 298.139 220.063, 281.937 141.250 L 280.858 136 211.398 136 C 156.710 136, 141.852 136.266, 141.535 137.250 M 112.546 205.513 C 97.236 208.016, 82.595 213.240, 69.500 220.874 C 58.009 227.573, 55.542 232.457, 59.977 239.730 L 61.946 242.960 68.223 238.216 C 85.616 225.070, 106.872 217.953, 129.500 217.699 C 154.067 217.423, 175.433 224.377, 194.756 238.937 C 216.806 255.553, 233.021 283.229, 235.631 308.705 C 236.083 313.113, 236.694 315, 237.670 315 C 240.521 315, 245.878 312.096, 247.043 309.919 C 249.806 304.757, 244.866 284.947, 236.981 269.567 C 220.783 237.972, 190.744 214.727, 156 206.901 C 144.369 204.282, 124.052 203.633, 112.546 205.513 M 109.292 236.999 C 99.055 239.682, 89.283 243.994, 81.083 249.445 C 77.187 252.035, 74 254.410, 74 254.723 C 74 255.036, 76.075 257.510, 78.610 260.221 C 82.666 264.557, 83.144 265.531, 82.586 268.321 C 81.780 272.351, 79.351 274.780, 75.321 275.586 C 72.518 276.146, 71.551 275.660, 66.991 271.395 L 61.833 266.570 59.877 269.035 C 52.070 278.875, 44.046 297.637, 42.427 309.837 L 41.742 315 47.815 315 C 55.598 315, 59.400 317.754, 59.400 323.393 C 59.400 329.039, 56.465 331.312, 48.521 331.818 C 40.860 332.306, 40.872 332.271, 43.915 344.169 C 46.604 354.681, 50.381 363.241, 56.305 372.251 L 61.402 380.002 64.451 377.152 C 71.992 370.103, 75.553 369.399, 80.194 374.040 C 82.745 376.592, 83.131 377.593, 82.595 380.275 C 82.233 382.083, 80.124 385.336, 77.732 387.773 C 75.177 390.376, 73.920 392.359, 74.552 392.789 C 75.126 393.180, 77.746 395.008, 80.375 396.851 C 89.771 403.439, 105.459 409.593, 117.750 411.512 L 122 412.176 122 405.776 C 122 400.730, 122.429 398.917, 124.028 397.201 C 126.820 394.204, 130.789 393.371, 133.916 395.126 C 137.452 397.111, 138.968 400.587, 138.985 406.750 C 138.993 409.637, 139.185 412, 139.412 412 C 141.673 412, 155.787 408.681, 160.434 407.056 C 167.514 404.580, 178.041 398.922, 183.283 394.773 L 187.067 391.779 182.533 386.932 C 177.165 381.193, 176.571 377.338, 180.455 373.455 C 184.126 369.783, 187.806 370.257, 194.018 375.203 L 199.297 379.407 202.222 375.953 C 208.650 368.364, 216.415 349.462, 218.483 336.371 L 219.135 332.242 212.547 331.822 C 205.140 331.350, 202.464 329.570, 201.436 324.429 C 200.953 322.015, 201.391 320.689, 203.500 318.182 C 206.004 315.207, 206.601 315, 212.677 315 L 219.176 315 218.503 310.750 C 216.468 297.889, 210.671 283.100, 203.851 273.375 C 202.008 270.746, 200.193 268.147, 199.817 267.598 C 199.428 267.029, 196.977 268.619, 194.110 271.300 C 188.411 276.631, 184.934 277.309, 180.635 273.927 C 178.579 272.310, 178 270.983, 178 267.885 C 178 264.553, 178.731 263.133, 182.540 259.061 L 187.080 254.207 180.290 249.728 C 169.451 242.578, 162.097 239.378, 150 236.549 C 139.201 234.024, 139.298 233.981, 138.818 241.521 C 138.312 249.465, 136.039 252.400, 130.393 252.400 C 124.791 252.400, 122 248.590, 122 240.944 C 122 235.113, 121.948 235.001, 119.250 235.055 C 117.737 235.085, 113.256 235.960, 109.292 236.999 M 308.178 241.750 C 306.028 245.463, 300.817 254.575, 296.598 262 C 286.108 280.460, 286.746 280, 271.651 280 L 259.413 280 262.158 290.750 C 265.381 303.369, 265.525 305.869, 263.433 312.913 C 260.591 322.484, 251.443 330.010, 240.795 331.538 L 236.091 332.214 235.454 336.857 C 234.868 341.130, 233.626 346.933, 232.373 351.250 C 231.898 352.887, 233.668 353, 259.782 353 L 287.699 353 288.360 342.913 C 289.252 329.313, 291.304 321.385, 297.010 309.500 C 317.571 266.674, 368.987 250.799, 410.996 274.306 C 421.187 280.008, 434.268 293.002, 440.387 303.500 C 447.554 315.796, 451.975 331.699, 451.992 345.250 C 451.997 348.413, 452.373 351, 452.829 351 C 455.090 351, 463.238 344.356, 465.893 340.348 C 470.786 332.961, 471.196 328.868, 470.832 291 C 470.507 257.237, 470.450 256.400, 468.176 251.828 C 465.035 245.510, 459.706 240.237, 453.581 237.386 L 448.500 235.020 380.294 235.010 L 312.088 235 308.178 241.750 M 122.536 275.113 C 113.497 276.429, 102.927 281.913, 95.920 288.920 C 72.127 312.713, 79.085 353.068, 109.459 367.437 C 128.588 376.487, 151.275 372.105, 165.781 356.560 C 175.158 346.511, 178.931 336.874, 178.976 322.855 C 179.053 298.677, 160.913 278.143, 136.697 274.997 C 132.739 274.483, 129.275 274.103, 129 274.153 C 128.725 274.203, 125.816 274.635, 122.536 275.113 M 361.381 282.942 C 337.237 286.750, 316.784 303.927, 308.920 327 C 305.878 335.925, 305.131 353.002, 307.388 362.019 C 314.812 391.679, 340.693 412.037, 370.910 411.985 C 389.231 411.954, 402.827 406.245, 416.036 393.036 C 429.438 379.633, 435.122 365.939, 435.074 347.165 C 435.035 331.823, 430.899 319.591, 421.597 307.298 C 413.810 297.009, 398.797 287.264, 386 284.193 C 379.477 282.628, 367.298 282.009, 361.381 282.942 M 121.951 292.300 C 112.890 294.867, 104.678 302.042, 100.687 310.878 C 97.562 317.794, 97.758 328.744, 101.136 336.046 C 106.679 348.026, 115.366 354.062, 128.125 354.801 C 140.494 355.517, 150.657 350.762, 156.898 341.340 C 170.465 320.858, 157.215 293.276, 132.951 291.487 C 129.198 291.210, 124.597 291.550, 121.951 292.300 M 361.024 311.603 C 353.533 313.616, 348.072 317.014, 342.670 323.023 C 336.365 330.034, 333.659 337.386, 333.659 347.500 C 333.659 358.826, 336.470 365.645, 344.412 373.588 C 352.355 381.530, 359.174 384.341, 370.500 384.341 C 381.826 384.341, 388.645 381.530, 396.588 373.588 C 406.218 363.958, 409.802 351.581, 406.590 339.045 C 402.966 324.901, 393.323 315.143, 379.380 311.511 C 372.296 309.666, 368.157 309.686, 361.024 311.603 M 362.500 328.896 C 348.969 335.160, 345.963 352.200, 356.624 362.197 C 367.019 371.944, 383.018 368.645, 389.104 355.500 C 396.656 339.188, 378.812 321.344, 362.500 328.896" stroke="none" fill="#040404" fill-rule="evenodd"/></svg>